<svg version="1.1" viewBox="0 0 152.7 100.69" xmlns="http://www.w3.org/2000/svg">
 <path d="M1.96 0C.88 0 0 .85 0 1.88v88.3c0 1 .88 1.86 1.94 1.86h26.1v-1.65H1.96c-.15 0-.25-.1-.25-.23V1.87c0-.14.1-.22.24-.22h148.8c.15 0 .24.08.24.23v88.3c0 .13-.1.22-.24.22h-27.4v1.64h27.4c1.07 0 1.95-.86 1.95-1.88V1.87c0-1.02-.88-1.87-1.94-1.87H1.96z" solid-color="#000000" style="block-progression:tb;isolation:auto;mix-blend-mode:normal;text-decoration-color:#000000;text-decoration-line:none;text-decoration-style:solid;text-indent:0;text-transform:none" white-space="normal"/>
 <g transform="matrix(.20039 0 0 .19348 24.005 1.6678)">
  <path d="m260.79 44.471c-127.59 0-231.02 103.43-231.02 231.02 0 127.59 103.43 231.02 231.02 231.02 127.59 0 231.02-103.43 231.02-231.02 0-127.59-103.43-231.02-231.02-231.02zm70.592 121.93c14.154 0 25.669 11.515 25.669 25.669s-11.515 25.669-25.669 25.669h-3e-3c-14.153 0-25.668-11.515-25.668-25.669 6e-3 -14.157 11.521-25.669 25.671-25.669zm-141.18 0c14.154 0 25.669 11.515 25.669 25.669s-11.513 25.668-25.666 25.671h-5e-3c-6.856 0-13.302-2.67-18.151-7.517-4.848-4.849-7.519-11.295-7.519-18.152 8e-3 -14.16 11.523-25.671 25.672-25.671zm-96.26 128.35v-38.504h102.68v38.504zm19.58 39.491 77.008-25.669 12.176 36.529-77.008 25.669zm205.58 87.94-45.291-14.497c-4.708-1.612-9.091-3.881-13.014-6.637-3.924 2.757-8.307 5.025-13.014 6.637l-0.37 0.122-44.922 14.375-11.736-36.671 44.69-14.302c3.101-1.105 5.32-3.363 6.099-4.552v-76.306c-9.481-8.533-17.731-21.698-21.819-34.103-3.115-10.459 4.938-19.115 17.969-19.252h46.205c13.031 0.137 21.084 8.792 17.969 19.252-4.088 12.405-12.338 25.569-21.819 34.103v76.306c0.778 1.19 2.997 3.447 6.098 4.552l44.69 14.302zm76.787-51.411-77.008-25.669 12.176-36.529 77.008 25.669zm-70.919-76.02v-38.504h102.68v38.504z"/>
 </g>
 <g transform="matrix(.20039 0 0 .19348 24.005 1.6678)">
  <path d="m508.67 8.025c-12.135-11.203-67.808 16.932-105.98 38.426 29.649 18.436 55.472 42.462 75.989 70.601 18.397-39.773 42.155-97.796 29.987-109.03z"/>
 </g>
 <g transform="matrix(.20039 0 0 .19348 24.005 1.6678)">
  <path d="m2.913 17.622c-11.693 11.694 14.279 68.583 34.241 107.58 19.491-28.91 44.434-53.853 73.344-73.345-39.001-19.961-95.891-45.934-107.58-34.239z"/>
 </g>
</svg>
