<?xml version="1.0" encoding="UTF-8" standalone="no"?>
<svg
   xmlns:dc="http://purl.org/dc/elements/1.1/"
   xmlns:cc="http://creativecommons.org/ns#"
   xmlns:rdf="http://www.w3.org/1999/02/22-rdf-syntax-ns#"
   xmlns:svg="http://www.w3.org/2000/svg"
   xmlns="http://www.w3.org/2000/svg"
   xmlns:sodipodi="http://sodipodi.sourceforge.net/DTD/sodipodi-0.dtd"
   xmlns:inkscape="http://www.inkscape.org/namespaces/inkscape"
   viewBox="0 0 152.7 100.69"
   version="1.1"
   id="svg6"
   sodipodi:docname="logo_raccoon.svg"
   inkscape:version="0.92.4 (f8dce91, 2019-08-02)">
  <metadata
     id="metadata12">
    <rdf:RDF>
      <cc:Work
         rdf:about="">
        <dc:format>image/svg+xml</dc:format>
        <dc:type
           rdf:resource="http://purl.org/dc/dcmitype/StillImage" />
        <dc:title></dc:title>
      </cc:Work>
    </rdf:RDF>
  </metadata>
  <defs
     id="defs10" />
  <sodipodi:namedview
     pagecolor="#ffffff"
     bordercolor="#666666"
     borderopacity="1"
     objecttolerance="10"
     gridtolerance="10"
     guidetolerance="10"
     inkscape:pageopacity="0"
     inkscape:pageshadow="2"
     inkscape:window-width="1868"
     inkscape:window-height="1016"
     id="namedview8"
     showgrid="false"
     inkscape:zoom="2.3438275"
     inkscape:cx="76.349998"
     inkscape:cy="50.345001"
     inkscape:window-x="52"
     inkscape:window-y="27"
     inkscape:window-maximized="1"
     inkscape:current-layer="svg6" />
  <path
     d="M1.96 0C.88 0 0 .85 0 1.88v88.3c0 1 .88 1.86 1.94 1.86h26.1v-1.65H1.96c-.15 0-.25-.1-.25-.23V1.87c0-.14.1-.22.24-.22h148.8c.15 0 .24.08.24.23v88.3c0 .13-.1.22-.24.22h-27.4v1.64h27.4c1.07 0 1.95-.86 1.95-1.88V1.87c0-1.02-.88-1.87-1.94-1.87H1.96z"
     white-space="normal"
     style="text-decoration-color:#000000;isolation:auto;mix-blend-mode:normal;text-indent:0;block-progression:tb;text-decoration-line:none;text-transform:none;text-decoration-style:solid"
     color="#000"
     solid-color="#000000"
     id="path2" />
  <g
     transform="matrix(0.63060864,0,0,0.58368811,18.954927,-6.7887653)"
     id="g209">
    <g
       id="g165">
      <path
         inkscape:connector-curvature="0"
         style="fill:#e9e2d8"
         d="m 63.389,69.93 c -0.613,1.587 -1.513,2.998 -2.698,4.184 C 53.359,81.438 37.545,77.705 24.204,65.917 23.236,65.065 22.29,64.173 21.356,63.239 7.49,49.373 2.626,31.767 10.482,23.91 c 7.863,-7.862 25.469,-2.991 39.335,10.868 3.345,3.346 6.167,6.909 8.408,10.5 5.661,9.048 7.658,18.274 5.164,24.652 z"
         id="path161" />
      <path
         inkscape:connector-curvature="0"
         style="fill:#1d1814"
         d="M 50.431,68.331 C 45.59,68.331 36.837,65.231 28.1,56.494 22.623,51.016 18.565,44.56 16.968,38.78 c -1.177,-4.258 -0.717,-7.15 0.26,-8.128 0.838,-0.838 2.56,-0.963 3.511,-0.963 4.841,0 13.594,3.1 22.33,11.836 5.477,5.478 9.535,11.934 11.132,17.714 1.177,4.258 0.717,7.15 -0.26,8.128 -0.837,0.838 -2.558,0.964 -3.51,0.964 z"
         id="path163" />
    </g>
    <path
       inkscape:connector-curvature="0"
       style="fill:#7d746d"
       d="m 92.401,37.912 v 126.74 c -0.626,0 -1.247,-0.007 -1.867,-0.014 -1.301,-0.02 -2.596,-0.055 -3.884,-0.116 -0.559,-0.021 -1.111,-0.047 -1.663,-0.081 -0.116,-0.007 -0.238,-0.014 -0.354,-0.021 -0.791,-0.048 -1.574,-0.096 -2.357,-0.157 -0.491,-0.034 -0.981,-0.075 -1.472,-0.122 -0.334,-0.02 -0.667,-0.055 -0.995,-0.082 -0.818,-0.082 -1.629,-0.164 -2.439,-0.252 -10.561,-1.186 -20.632,-3.577 -29.816,-6.916 -0.184,-0.068 -0.375,-0.137 -0.559,-0.211 -2.064,-0.75 -4.082,-1.554 -6.044,-2.412 -0.572,-0.246 -1.131,-0.498 -1.696,-0.75 -0.382,-0.17 -0.763,-0.348 -1.145,-0.531 -7.931,-3.693 -14.97,-8.149 -20.761,-13.109 -0.92,-0.79 -1.806,-1.588 -2.664,-2.405 -2.214,-2.105 -4.218,-4.299 -5.976,-6.555 -0.238,-0.3 -0.463,-0.6 -0.688,-0.906 C 7.844,129.774 7.667,129.535 7.497,129.29 7.265,128.97 7.04,128.649 6.822,128.329 6.372,127.675 5.95,127.014 5.548,126.352 5.126,125.671 4.731,124.983 4.356,124.294 1.726,119.409 0.207,114.299 0.023,109.1 -0.1,105.925 0.275,102.709 1.195,99.5 4.772,86.963 13.262,75.481 24.205,65.915 c 1.724,-1.506 3.502,-2.964 5.335,-4.367 0.661,-0.504 1.322,-1.002 1.996,-1.499 0.089,-0.062 0.17,-0.123 0.259,-0.184 0.014,-0.007 0.027,-0.021 0.041,-0.027 5.526,-4.027 11.468,-7.591 17.579,-10.609 2.903,-1.444 5.853,-2.766 8.81,-3.951 11.746,-4.716 23.684,-7.366 34.176,-7.366 z"
       id="path167" />
    <path
       inkscape:connector-curvature="0"
       style="fill:#e9e2d8"
       d="m 92.401,143.176 c 0,1.888 -0.041,3.761 -0.129,5.621 -0.15,3.481 -0.45,6.909 -0.886,10.262 -0.239,1.887 -0.524,3.747 -0.851,5.58 -1.301,-0.02 -2.596,-0.055 -3.884,-0.116 -0.559,-0.021 -1.111,-0.047 -1.663,-0.081 -0.116,-0.007 -0.238,-0.014 -0.354,-0.021 -0.791,-0.048 -1.574,-0.096 -2.357,-0.157 -0.491,-0.034 -0.981,-0.075 -1.472,-0.122 -0.334,-0.02 -0.667,-0.055 -0.995,-0.082 -0.818,-0.082 -1.629,-0.164 -2.439,-0.252 -10.561,-1.186 -20.632,-3.577 -29.816,-6.916 -0.184,-0.068 -0.375,-0.137 -0.559,-0.211 -2.064,-0.75 -4.082,-1.554 -6.044,-2.412 -0.572,-0.246 -1.131,-0.498 -1.696,-0.75 -0.382,-0.17 -0.763,-0.348 -1.145,-0.531 -7.931,-3.693 -14.97,-8.149 -20.761,-13.109 -0.92,-0.79 -1.806,-1.588 -2.664,-2.405 -2.214,-2.105 -4.218,-4.299 -5.976,-6.555 -0.238,-0.3 -0.463,-0.6 -0.688,-0.906 -0.177,-0.238 -0.354,-0.477 -0.524,-0.722 -0.232,-0.32 -0.457,-0.641 -0.675,-0.961 -0.45,-0.654 -0.872,-1.315 -1.274,-1.977 -0.422,-0.681 -0.817,-1.369 -1.192,-2.058 -2.63,-4.885 -4.149,-9.995 -4.333,-15.194 -0.123,-3.175 0.252,-6.391 1.172,-9.6 3.577,-12.537 12.067,-24.019 23.01,-33.585 1.724,-1.506 3.502,-2.964 5.335,-4.367 0.661,-0.504 1.322,-1.002 1.996,-1.499 0.143,-0.021 0.28,-0.034 0.423,-0.048 1.533,-0.197 3.086,-0.293 4.654,-0.293 6.405,0 12.55,1.615 18.281,4.586 2.95,1.533 5.792,3.42 8.497,5.635 16.83,13.804 28.386,40.214 28.985,70.731 0.018,0.832 0.024,1.67 0.024,2.515 z"
       id="path169" />
    <path
       inkscape:connector-curvature="0"
       style="fill:#1d1814"
       d="m 55.145,149.274 c -2.664,2.664 -5.396,5.144 -8.149,7.406 -2.064,-0.75 -4.082,-1.554 -6.044,-2.412 -0.572,-0.246 -1.131,-0.498 -1.696,-0.75 -0.382,-0.17 -0.763,-0.348 -1.145,-0.531 -7.931,-3.693 -14.97,-8.149 -20.761,-13.109 -0.92,-0.79 -1.806,-1.588 -2.664,-2.405 -2.214,-2.105 -4.218,-4.299 -5.976,-6.555 -0.238,-0.3 -0.463,-0.6 -0.688,-0.906 -0.177,-0.238 -0.354,-0.477 -0.524,-0.722 -0.232,-0.32 -0.457,-0.641 -0.675,-0.961 3.482,-5.015 7.679,-10.043 12.503,-14.874 21.177,-21.163 43.545,-33.114 56.246,-20.414 12.694,12.701 0.743,35.07 -20.427,56.233 z"
       id="path171" />
    <g
       id="g179">
      <circle
         style="fill:#ffffff"
         cx="59.52"
         cy="109.735"
         r="13.399"
         id="circle173" />
      <circle
         style="fill:#1d1814"
         cx="59.52"
         cy="109.735"
         r="7.8889999"
         id="circle175" />
      <path
         inkscape:connector-curvature="0"
         style="fill:#ffffff"
         d="m 63.867,107.561 c 0,2.754 -2.526,2.174 -2.174,2.174 -1.2,0 -2.173,-0.974 -2.173,-2.174 0,-1.2 0.973,-2.174 2.173,-2.174 1.201,0.001 2.174,0.974 2.174,2.174 z"
         id="path177" />
    </g>
    <g
       id="g185">
      <ellipse
         transform="matrix(-0.7071,-0.7071,0.7071,-0.7071,220.0761,189.1786)"
         style="fill:#e9e2d8"
         cx="149.218"
         cy="49.011002"
         rx="20.124001"
         ry="35.5"
         id="ellipse181" />
      <path
         inkscape:connector-curvature="0"
         style="fill:#1d1814"
         d="m 134.372,68.331 c 4.842,0 13.594,-3.1 22.331,-11.836 5.478,-5.478 9.535,-11.934 11.133,-17.714 1.177,-4.258 0.717,-7.15 -0.26,-8.128 -0.838,-0.838 -2.56,-0.964 -3.511,-0.964 -4.841,0 -13.594,3.1 -22.331,11.837 -5.478,5.477 -9.535,11.934 -11.133,17.714 -1.177,4.258 -0.717,7.15 0.26,8.128 0.838,0.838 2.559,0.963 3.511,0.963 z"
         id="path183" />
    </g>
    <path
       inkscape:connector-curvature="0"
       style="fill:#7d746d"
       d="m 184.78,109.101 c -0.184,5.199 -1.703,10.31 -4.333,15.194 -0.375,0.688 -0.77,1.377 -1.192,2.058 -0.402,0.661 -0.824,1.322 -1.274,1.977 -0.068,0.096 -0.129,0.19 -0.198,0.286 -0.15,0.225 -0.313,0.449 -0.477,0.675 -0.17,0.245 -0.347,0.483 -0.524,0.722 -0.225,0.307 -0.45,0.607 -0.688,0.906 -1.758,2.256 -3.761,4.449 -5.976,6.555 -0.859,0.817 -1.745,1.615 -2.665,2.405 -5.791,4.96 -12.83,9.416 -20.761,13.109 -0.382,0.184 -0.763,0.361 -1.145,0.531 -0.566,0.252 -1.124,0.504 -1.696,0.75 -1.962,0.858 -3.98,1.662 -6.044,2.412 -0.184,0.074 -0.374,0.143 -0.559,0.211 -9.185,3.339 -19.255,5.73 -29.816,6.916 -0.811,0.088 -1.622,0.17 -2.439,0.252 -0.341,0.034 -0.682,0.062 -1.022,0.082 -0.477,0.047 -0.961,0.088 -1.445,0.122 -0.784,0.062 -1.567,0.109 -2.357,0.157 -0.116,0.007 -0.238,0.014 -0.354,0.021 -0.552,0.034 -1.104,0.061 -1.663,0.081 -1.288,0.061 -2.582,0.096 -3.883,0.116 -0.62,0.007 -1.24,0.014 -1.867,0.014 V 37.912 c 10.493,0 22.431,2.65 34.177,7.366 2.957,1.186 5.907,2.507 8.81,3.951 6.112,3.019 12.054,6.582 17.579,10.609 0.014,0.007 0.027,0.021 0.041,0.027 0.089,0.061 0.17,0.122 0.259,0.184 0.674,0.497 1.335,0.995 1.996,1.499 1.833,1.403 3.611,2.861 5.335,4.367 10.943,9.566 19.433,21.048 23.01,33.585 0.919,3.21 1.294,6.426 1.171,9.601 z"
       id="path187" />
    <path
       inkscape:connector-curvature="0"
       style="fill:#e9e2d8"
       d="m 184.78,109.101 c -0.184,5.199 -1.703,10.31 -4.333,15.194 -0.375,0.688 -0.77,1.377 -1.192,2.058 -0.402,0.661 -0.824,1.322 -1.274,1.977 -0.068,0.096 -0.129,0.19 -0.198,0.286 -0.15,0.225 -0.313,0.449 -0.477,0.675 -0.17,0.245 -0.347,0.483 -0.524,0.722 -0.225,0.307 -0.45,0.607 -0.688,0.906 -1.758,2.256 -3.761,4.449 -5.976,6.555 -0.859,0.817 -1.745,1.615 -2.665,2.405 -5.791,4.96 -12.83,9.416 -20.761,13.109 -0.382,0.184 -0.763,0.361 -1.145,0.531 -0.566,0.252 -1.124,0.504 -1.696,0.75 -1.962,0.858 -3.98,1.662 -6.044,2.412 -0.184,0.074 -0.374,0.143 -0.559,0.211 -9.185,3.339 -19.255,5.73 -29.816,6.916 -0.811,0.088 -1.622,0.17 -2.439,0.252 -0.341,0.034 -0.682,0.062 -1.022,0.082 -0.477,0.047 -0.961,0.088 -1.445,0.122 -0.784,0.062 -1.567,0.109 -2.357,0.157 -0.116,0.007 -0.238,0.014 -0.354,0.021 -0.552,0.034 -1.104,0.061 -1.663,0.081 -1.288,0.061 -2.582,0.096 -3.883,0.116 -0.327,-1.833 -0.613,-3.693 -0.852,-5.58 -0.436,-3.353 -0.736,-6.78 -0.886,-10.262 -0.088,-1.86 -0.129,-3.733 -0.129,-5.621 0,-0.845 0.007,-1.683 0.027,-2.515 0.886,-44.935 25.517,-80.952 55.763,-80.952 1.71,0 3.407,0.116 5.076,0.341 0.674,0.497 1.335,0.995 1.996,1.499 1.833,1.403 3.611,2.861 5.335,4.367 10.943,9.566 19.433,21.048 23.01,33.585 0.919,3.209 1.294,6.425 1.171,9.6 z"
       id="path189" />
    <path
       inkscape:connector-curvature="0"
       style="fill:#1d1814"
       d="m 129.658,149.274 c 2.665,2.664 5.396,5.145 8.149,7.406 2.064,-0.749 4.081,-1.553 6.044,-2.412 0.573,-0.245 1.131,-0.497 1.697,-0.749 0.381,-0.171 0.763,-0.348 1.144,-0.531 7.931,-3.693 14.97,-8.149 20.761,-13.109 0.92,-0.791 1.806,-1.588 2.664,-2.405 2.214,-2.105 4.218,-4.3 5.976,-6.555 0.667,-0.852 1.294,-1.717 1.887,-2.59 -3.481,-5.015 -7.679,-10.043 -12.503,-14.874 C 144.3,92.292 121.932,80.342 109.23,93.042 c -12.692,12.7 -0.741,35.069 20.428,56.232 z"
       id="path191" />
    <g
       id="g199">
      <circle
         style="fill:#ffffff"
         cx="125.283"
         cy="109.736"
         r="13.399"
         id="circle193" />
      <circle
         style="fill:#1d1814"
         cx="125.283"
         cy="109.736"
         r="7.8889999"
         id="circle195" />
      <path
         inkscape:connector-curvature="0"
         style="fill:#ffffff"
         d="m 120.936,107.562 c 0,2.754 2.526,2.174 2.173,2.174 1.201,0 2.174,-0.974 2.174,-2.174 0,-1.201 -0.973,-2.174 -2.174,-2.174 -1.2,10e-4 -2.173,0.973 -2.173,2.174 z"
         id="path197" />
    </g>
    <path
       inkscape:connector-curvature="0"
       style="fill:#e9e2d8"
       d="m 103.971,135.526 v 28.188 c -0.477,0.087 -0.961,0.162 -1.445,0.225 -0.784,0.113 -1.567,0.2 -2.357,0.288 -0.116,0.013 -0.238,0.025 -0.354,0.038 -0.552,0.063 -1.104,0.112 -1.663,0.15 -1.288,0.112 -2.582,0.175 -3.883,0.212 -0.62,0.013 -1.24,0.025 -1.867,0.025 -0.626,0 -1.247,-0.013 -1.867,-0.025 -1.301,-0.037 -2.596,-0.1 -3.884,-0.212 -0.559,-0.038 -1.111,-0.088 -1.663,-0.15 -0.116,-0.013 -0.238,-0.025 -0.354,-0.038 -0.791,-0.088 -1.574,-0.175 -2.357,-0.288 -0.491,-0.063 -0.981,-0.138 -1.472,-0.225 v -28.188 z"
       id="path201" />
    <path
       inkscape:connector-curvature="0"
       style="fill:#1d1814"
       d="m 92.401,129.532 v 0 c -8.067,10e-4 -14.602,-0.958 -14.602,5.147 0,6.105 6.534,11.051 14.602,11.051 v 0 c 8.067,0 14.602,-4.947 14.602,-11.052 0,-6.105 -6.534,-5.146 -14.602,-5.146 z"
       id="path203" />
    <path
       inkscape:connector-curvature="0"
       style="fill:#43423e"
       d="m 92.406,159.619 c -3.655,0 -7.064,-1.965 -8.898,-5.128 -0.554,-0.955 -0.228,-2.179 0.728,-2.733 0.955,-0.553 2.18,-0.228 2.733,0.728 1.121,1.933 3.205,3.134 5.438,3.134 2.228,0 4.308,-1.201 5.429,-3.134 0.554,-0.955 1.778,-1.28 2.733,-0.728 0.955,0.555 1.281,1.778 0.727,2.733 -1.835,3.163 -5.241,5.128 -8.89,5.128 z"
       id="path205" />
    <path
       inkscape:connector-curvature="0"
       style="opacity:0.5;fill:#bcbec0"
       d="m 92.401,37.912 v 126.74 c -0.626,0 -1.247,-0.007 -1.867,-0.014 -1.301,-0.02 -2.596,-0.055 -3.884,-0.116 -0.559,-0.021 -1.111,-0.047 -1.663,-0.081 -0.116,-0.007 -0.238,-0.014 -0.354,-0.021 -0.791,-0.048 -1.574,-0.096 -2.357,-0.157 -0.491,-0.034 -0.981,-0.075 -1.472,-0.122 -0.334,-0.02 -0.667,-0.055 -0.995,-0.082 -0.818,-0.082 -1.629,-0.164 -2.439,-0.252 -10.561,-1.186 -20.632,-3.577 -29.816,-6.916 -0.184,-0.068 -0.375,-0.137 -0.559,-0.211 -2.064,-0.75 -4.082,-1.554 -6.044,-2.412 -0.572,-0.246 -1.131,-0.498 -1.696,-0.75 -0.382,-0.17 -0.763,-0.348 -1.145,-0.531 -7.931,-3.693 -14.97,-8.149 -20.761,-13.109 -0.92,-0.79 -1.806,-1.588 -2.664,-2.405 -2.214,-2.105 -4.218,-4.299 -5.976,-6.555 -0.238,-0.3 -0.463,-0.6 -0.688,-0.906 C 7.844,129.774 7.667,129.535 7.497,129.29 7.265,128.97 7.04,128.649 6.822,128.329 6.372,127.675 5.95,127.014 5.548,126.352 5.126,125.671 4.731,124.983 4.356,124.294 1.726,119.409 0.207,114.299 0.023,109.1 -0.1,105.925 0.275,102.709 1.195,99.5 4.772,86.963 13.262,75.481 24.205,65.915 23.237,65.063 22.291,64.171 21.357,63.237 7.49,49.373 2.626,31.767 10.482,23.91 c 7.863,-7.862 25.469,-2.991 39.335,10.868 3.345,3.346 6.167,6.909 8.408,10.5 11.746,-4.716 23.684,-7.366 34.176,-7.366 z"
       id="path207" />
  </g>
  <g
     transform="matrix(0.57289124,0,0,0.51873165,26.208037,0.4932912)"
     id="g211" />
  <g
     transform="matrix(0.57289124,0,0,0.51873165,26.208037,0.4932912)"
     id="g213" />
  <g
     transform="matrix(0.57289124,0,0,0.51873165,26.208037,0.4932912)"
     id="g215" />
  <g
     transform="matrix(0.57289124,0,0,0.51873165,26.208037,0.4932912)"
     id="g217" />
  <g
     transform="matrix(0.57289124,0,0,0.51873165,26.208037,0.4932912)"
     id="g219" />
  <g
     transform="matrix(0.57289124,0,0,0.51873165,26.208037,0.4932912)"
     id="g221" />
  <g
     transform="matrix(0.57289124,0,0,0.51873165,26.208037,0.4932912)"
     id="g223" />
  <g
     transform="matrix(0.57289124,0,0,0.51873165,26.208037,0.4932912)"
     id="g225" />
  <g
     transform="matrix(0.57289124,0,0,0.51873165,26.208037,0.4932912)"
     id="g227" />
  <g
     transform="matrix(0.57289124,0,0,0.51873165,26.208037,0.4932912)"
     id="g229" />
  <g
     transform="matrix(0.57289124,0,0,0.51873165,26.208037,0.4932912)"
     id="g231" />
  <g
     transform="matrix(0.57289124,0,0,0.51873165,26.208037,0.4932912)"
     id="g233" />
  <g
     transform="matrix(0.57289124,0,0,0.51873165,26.208037,0.4932912)"
     id="g235" />
  <g
     transform="matrix(0.57289124,0,0,0.51873165,26.208037,0.4932912)"
     id="g237" />
  <g
     transform="matrix(0.57289124,0,0,0.51873165,26.208037,0.4932912)"
     id="g239" />
</svg>
