<?xml version="1.0" standalone="no"?>
<!DOCTYPE svg PUBLIC "-//W3C//DTD SVG 20010904//EN"
 "http://www.w3.org/TR/2001/REC-SVG-20010904/DTD/svg10.dtd">
<svg version="1.0" xmlns="http://www.w3.org/2000/svg"
 width="1224.000000pt" height="1224.000000pt" viewBox="0 0 1224.000000 1224.000000"
 preserveAspectRatio="xMidYMid meet">
<metadata>
Created by potrace 1.11, written by Peter Selinger 2001-2013
</metadata>
<g transform="translate(0.000000,1224.000000) scale(0.100000,-0.100000)"
fill="#000000" stroke="none">
<path d="M85 10133 c-16 -8 -41 -29 -55 -46 l-25 -31 0 -3596 0 -3595 29 -32
c56 -63 -1 -60 1156 -59 l1055 1 0 65 0 65 -1047 0 c-576 0 -1050 4 -1054 8
-4 4 -8 1603 -8 3552 -1 3143 1 3546 14 3549 8 3 2700 4 5982 4 5481 -1 5967
-2 5970 -17 6 -29 2 -7076 -4 -7086 -4 -7 -403 -10 -1103 -10 -969 0 -1098 -2
-1104 -15 -5 -12 -6 -68 -2 -108 1 -5 504 -8 1119 -8 1098 1 1118 1 1151 21
19 11 43 33 55 48 l21 28 3 3572 c3 3949 8 3626 -61 3678 l-32 24 -6015 2
c-5405 2 -6018 0 -6045 -14z"/>
<path d="M2547 9754 c-1 -1 -35 -4 -76 -8 -41 -3 -93 -11 -115 -17 -23 -6 -45
-12 -51 -13 -32 -6 -97 -33 -142 -58 -46 -26 -143 -103 -151 -120 -2 -3 -14
-19 -28 -35 -30 -35 -67 -105 -83 -158 -7 -22 -15 -47 -18 -55 -12 -33 -15
-60 -16 -190 -2 -173 15 -266 78 -435 15 -38 31 -83 37 -100 6 -16 19 -42 30
-57 10 -14 18 -33 18 -41 0 -8 7 -20 15 -27 8 -7 15 -17 15 -22 0 -21 185
-304 220 -338 3 -3 18 -21 33 -40 95 -117 255 -282 345 -356 30 -24 50 -44 45
-45 -4 0 3 -5 17 -10 l24 -10 -29 -27 c-17 -15 -48 -42 -70 -61 -171 -146
-385 -358 -487 -482 -18 -23 -41 -51 -52 -62 -66 -77 -226 -301 -226 -317 0
-4 -3 -10 -7 -12 -10 -4 -73 -107 -73 -118 0 -5 -3 -10 -7 -12 -12 -5 -139
-265 -149 -303 -1 -5 -8 -23 -15 -40 -7 -16 -13 -32 -14 -35 -1 -3 -4 -12 -8
-20 -8 -20 -48 -154 -52 -177 -2 -10 -4 -18 -5 -18 -7 0 -20 -102 -35 -280 0
-11 1 -24 3 -28 2 -4 5 -42 7 -85 4 -93 18 -176 51 -289 33 -115 97 -269 117
-284 5 -3 8 -10 8 -15 -1 -5 20 -44 47 -87 26 -43 52 -86 57 -95 11 -19 115
-160 142 -193 53 -64 269 -280 338 -337 44 -37 90 -76 102 -87 37 -34 293
-217 333 -237 14 -7 27 -16 30 -19 3 -3 39 -25 80 -49 41 -24 83 -50 93 -58 9
-8 17 -12 17 -8 0 4 13 -2 29 -13 16 -12 34 -21 39 -21 6 0 12 -3 14 -7 3 -9
180 -97 318 -161 68 -31 281 -118 395 -162 11 -4 31 -12 45 -18 47 -20 440
-145 465 -148 6 0 35 -8 66 -18 31 -9 66 -19 78 -21 11 -3 30 -7 41 -10 59
-15 153 -36 180 -41 14 -3 41 -9 61 -14 45 -12 134 -30 174 -35 17 -2 41 -7
55 -10 14 -3 38 -8 53 -10 26 -4 86 -13 132 -21 97 -16 153 -23 220 -30 27 -3
64 -7 80 -9 17 -3 55 -7 85 -10 30 -2 75 -7 100 -9 199 -20 853 -28 1070 -13
142 11 294 24 360 32 25 4 59 8 75 9 61 7 151 18 170 22 11 3 38 7 60 9 22 3
63 10 90 15 28 6 66 13 85 16 44 6 57 8 155 28 44 9 90 18 103 21 13 2 32 7
42 10 19 6 45 12 90 21 14 3 43 10 65 16 22 5 47 12 55 14 51 13 133 35 180
49 30 9 72 21 94 26 21 5 46 14 56 19 9 5 28 11 41 14 67 13 441 152 579 214
36 16 88 39 115 52 91 41 309 151 380 192 102 59 239 142 245 148 3 3 30 21
60 40 30 19 62 40 70 47 8 7 56 42 105 79 140 105 291 238 389 343 22 25 52
56 66 70 21 22 89 104 112 136 4 5 18 24 31 40 33 41 105 151 124 189 9 17 19
33 22 36 18 15 136 291 146 340 2 8 8 35 15 60 7 25 14 54 16 65 25 117 26
424 1 530 -26 108 -69 246 -99 315 -6 14 -16 39 -23 55 -25 59 -128 260 -146
287 -11 14 -19 29 -19 33 0 9 -138 215 -161 241 -11 11 -19 24 -19 28 0 4 -13
21 -30 39 -16 18 -30 35 -30 38 0 4 -12 20 -27 36 -16 17 -44 49 -63 73 -46
56 -168 187 -250 266 -106 102 -161 154 -165 154 -2 0 -19 15 -38 33 -19 17
-56 50 -81 71 l-46 39 32 26 c97 79 285 267 368 368 60 73 155 202 204 278
120 187 234 457 250 591 2 11 6 26 9 31 7 11 15 121 17 208 3 204 -100 411
-254 511 -69 45 -151 84 -175 84 -10 0 -21 3 -25 7 -4 5 -11 8 -14 9 -11 1
-105 15 -132 20 -71 12 -236 3 -375 -22 -113 -20 -421 -123 -436 -146 -3 -5
-10 -9 -15 -9 -13 1 -48 -11 -54 -18 -3 -3 -27 -17 -55 -31 -75 -37 -220 -122
-223 -132 -2 -4 -8 -8 -13 -8 -10 0 -103 -62 -107 -72 -2 -5 -8 -8 -13 -8 -6
0 -24 -13 -42 -30 -18 -16 -35 -30 -39 -30 -4 0 -13 -6 -20 -13 -7 -6 -29 -25
-48 -41 -135 -110 -327 -301 -410 -406 -35 -44 -74 -96 -95 -124 -60 -84 -58
-83 -120 -56 -17 7 -240 82 -255 85 -3 1 -32 10 -65 20 -33 10 -64 20 -70 21
-5 1 -30 7 -55 14 -25 7 -52 14 -60 16 -8 2 -40 10 -70 19 -30 8 -68 17 -85
20 -16 3 -48 11 -70 17 -22 5 -49 12 -60 14 -68 11 -95 16 -135 24 -46 10 -74
15 -145 24 -22 3 -60 8 -85 12 -164 22 -267 28 -505 28 -132 1 -280 -3 -330
-8 -49 -4 -103 -9 -120 -11 -35 -3 -119 -15 -155 -21 -14 -2 -56 -9 -95 -15
-38 -6 -86 -14 -105 -19 -19 -5 -52 -11 -74 -14 -21 -4 -42 -8 -46 -11 -4 -2
-22 -7 -41 -9 -19 -3 -61 -12 -94 -21 -33 -9 -67 -18 -75 -19 -8 -2 -22 -6
-30 -9 -8 -3 -59 -17 -112 -32 -54 -14 -171 -51 -260 -81 -90 -30 -170 -58
-179 -60 -11 -4 -30 14 -61 58 -25 35 -54 73 -64 85 -11 12 -28 33 -39 47 -82
104 -234 258 -385 390 -48 42 -232 180 -277 207 -21 13 -39 27 -41 31 -2 4 -7
8 -12 8 -4 0 -37 17 -71 38 -65 39 -251 134 -324 164 -51 21 -206 73 -265 88
-46 12 -59 15 -120 26 -19 4 -44 8 -55 11 -38 7 -213 21 -218 17z"/>
</g>
</svg>
