<?xml version="1.0" standalone="no"?>
<!DOCTYPE svg PUBLIC "-//W3C//DTD SVG 20010904//EN"
 "http://www.w3.org/TR/2001/REC-SVG-20010904/DTD/svg10.dtd">
<svg version="1.0" xmlns="http://www.w3.org/2000/svg"
 width="700.000000pt" height="700.000000pt" viewBox="0 0 700.000000 700.000000"
 preserveAspectRatio="xMidYMid meet">
<metadata>
Created by potrace 1.11, written by Peter Selinger 2001-2013
</metadata>
<g transform="translate(0.000000,700.000000) scale(0.100000,-0.100000)"
fill="#000000" stroke="none">
<path d="M690 6233 c-57 -6 -161 -44 -215 -78 -73 -47 -122 -101 -160 -180
-102 -206 -73 -484 81 -802 46 -93 189 -325 212 -343 4 -3 25 -27 47 -55 22
-27 88 -100 148 -162 l109 -111 -43 -39 c-447 -397 -765 -902 -853 -1353 -11
-52 -14 -122 -12 -230 3 -135 7 -169 34 -265 38 -138 52 -175 106 -283 93
-185 204 -334 380 -507 535 -530 1384 -900 2351 -1024 140 -18 158 -20 285
-28 252 -16 685 -8 875 17 143 18 159 20 230 31 724 109 1400 373 1905 742
443 325 721 709 811 1122 15 67 18 319 6 408 -35 251 -213 627 -436 917 -108
141 -271 318 -414 448 -26 23 -47 44 -47 46 0 2 37 39 81 82 393 381 623 887
564 1239 -32 183 -145 319 -316 381 -146 52 -416 29 -606 -52 -18 -8 -50 -21
-70 -30 -318 -134 -675 -438 -901 -767 -31 -46 -51 -67 -62 -63 -8 3 -106 36
-216 74 -111 38 -217 72 -235 75 -19 4 -59 14 -89 22 -199 56 -511 98 -740 98
-91 1 -277 -10 -326 -18 -16 -2 -87 -14 -159 -26 -71 -12 -188 -36 -260 -55
-71 -18 -139 -36 -150 -39 -42 -10 -302 -99 -343 -116 -24 -11 -47 -19 -51
-19 -5 0 -25 26 -46 58 -150 226 -374 450 -615 613 -52 35 -113 74 -135 86
-22 11 -56 30 -75 40 -19 11 -60 29 -90 42 -30 12 -64 26 -75 31 -45 20 -130
43 -240 65 -37 7 -197 12 -245 8z"/>
</g>
</svg>
